# xmcd
#
# Track frame offsets:
#	150
#	17102
#	34057
#
# Disc length: 675 seconds
#
# Revision: 0
# Processed by: cddbd v1.5.1PL0 Copyright (c) Steve Scherf et al.
# Submitted via: audiograbber 1.83.01
#
DISCID=1b02a103
DTITLE=Jimmy Wayne - You Are
DYEAR=2003
DGENRE=Country
TTITLE0=You Are
TTITLE1=You Are
TTITLE2=You Are
EXTD=
EXTT0=
EXTT1=
EXTT2=
PLAYORDER=
